<?xml version="1.0" encoding="UTF-8"?>
<svg width="32" height="32" viewBox="0 0 32 32" fill="none" xmlns="http://www.w3.org/2000/svg">
    <rect width="32" height="32" rx="8" fill="#1890FF"/>
    <path d="M16 8C12.13 8 9 11.13 9 15V17H7V25H25V17H23V15C23 11.13 19.87 8 16 8ZM16 10C18.76 10 21 12.24 21 15V17H11V15C11 12.24 13.24 10 16 10ZM9 19H23V23H9V19Z" fill="white"/>
    <path d="M16 20C16.5523 20 17 20.4477 17 21C17 21.5523 16.5523 22 16 22C15.4477 22 15 21.5523 15 21C15 20.4477 15.4477 20 16 20Z" fill="white"/>
</svg>
