<svg xmlns="http://www.w3.org/2000/svg" width="300" height="46" viewBox="0 0 298 46">
  <g fill="#f03034">
    <path d="M0 27.152v-.09C-.18 16.727 8.059 8.238 18.352 8.06h.777a17.652 17.652 0 0 1 14.594 6.543 1.3 1.3 0 0 1-.18 1.855l-.031.027-.028.032-5.523 4.273c-.535.418-1.344.36-1.79-.18-1.73-2.12-4.296-3.347-7.042-3.316-5.102 0-8.567 4.332-8.567 9.652v.09c0 5.469 3.434 9.77 8.567 9.77 2.863 0 5.61-1.313 7.34-3.614.449-.48 1.195-.57 1.73-.18l5.492 3.915c.598.418.715 1.254.297 1.851l-.027.032c-3.613 4.75-9.313 7.441-15.281 7.14C8.504 46.098.12 37.91 0 27.691v-.539M40.676 9.195H67.44c.746 0 1.313.598 1.313 1.313v5.976c0 .72-.594 1.317-1.313 1.317H49.656a.33.33 0 0 0-.328.328v4.96c0 .18.149.329.328.329H65.86a1.31 1.31 0 0 1 1.317 1.316v4.961c0 .715-.598 1.313-1.317 1.313H49.656a.33.33 0 0 0-.328.328v5.32c0 .18.149.328.328.328H67.86c.72 0 1.313.598 1.313 1.317v5.617c0 .746-.594 1.312-1.313 1.312H40.645a1.305 1.305 0 0 1-1.313-1.312V10.449c0-.656.598-1.254 1.344-1.254M116.71 29.273V10.54c0-.746.599-1.316 1.313-1.316h7.61c.746 0 1.312.597 1.312 1.316v18.527c0 5.258 2.54 7.77 6.625 7.77 4.09 0 6.625-2.39 6.625-7.5V10.539c0-.746.598-1.316 1.313-1.316h7.941c.746 0 1.313.597 1.313 1.316v18.469c0 11.773-6.746 16.972-17.13 16.972-10.386 0-16.921-5.289-16.921-16.707M158.043 9.195h26.5c.746 0 1.312.598 1.312 1.313v5.976c0 .75-.597 1.317-1.312 1.317h-17.578a.33.33 0 0 0-.328.328v4.96c0 .18.148.329.328.329h15.875c.746 0 1.312.598 1.312 1.316v4.961c0 .715-.593 1.313-1.312 1.313h-15.875a.33.33 0 0 0-.328.328v5.32c0 .18.148.328.328.328h18.203c.715 0 1.312.598 1.312 1.317v5.617c0 .715-.597 1.312-1.312 1.312h-27.125a1.305 1.305 0 0 1-1.313-1.312V10.449c0-.656.567-1.254 1.313-1.254M192.75 9.195h6.621c.809 0 1.555.36 2.063.985l13.906 17.152c.117.148.328.148.476.031.059-.058.118-.148.118-.238V10.539a1.31 1.31 0 0 1 1.316-1.316h7.25c.746 0 1.313.597 1.313 1.316v33.41c0 .746-.598 1.313-1.313 1.313h-6.418c-.832 0-1.61-.387-2.117-1.075l-13.7-18.23c-.117-.148-.327-.18-.445-.059-.09.059-.12.149-.148.27v17.781c0 .746-.598 1.313-1.313 1.313h-7.582a1.305 1.305 0 0 1-1.312-1.313V10.54c0-.746.566-1.344 1.285-1.344M230.11 38.867l3.968-4.75a1.307 1.307 0 0 1 1.793-.21c3.133 2.331 6.922 3.585 10.832 3.644 2.715 0 4.176-.953 4.176-2.508v-.18c0-1.496-1.164-2.36-6.117-3.496-7.758-1.762-13.727-3.972-13.727-11.476v.062c0-6.785 5.34-11.594 14.086-11.594 4.953-.18 9.816 1.254 13.934 4.032a1.34 1.34 0 0 1 .328 1.855l-3.578 4.957a1.355 1.355 0 0 1-1.793.36A17.329 17.329 0 0 0 245 16.636c-2.445 0-3.578 1.043-3.578 2.36v.089c0 1.644 1.223 2.39 6.266 3.555 8.386 1.824 13.546 4.543 13.546 11.386v.118c0 7.472-5.906 11.894-14.77 11.894a25.857 25.857 0 0 1-16.054-5.168 1.309 1.309 0 0 1-.242-1.855l.031-.059M95.344 36l-3.61-3.078a1.329 1.329 0 0 1-.148-1.883l.027-.031 3.313-3.735c.476-.539 1.312-.597 1.883-.12l3.668 3.316c.148.12.328.12.476-.028a.572.572 0 0 0 .09-.148 9.815 9.815 0 0 0 .508-3.078v-.121c.238-5.23-3.79-9.684-9.012-9.922h-.328c-5.52 0-9.16 4.601-9.16 9.863v.09c0 5.258 3.64 9.95 9.191 9.95a9.894 9.894 0 0 0 3.074-.598.324.324 0 0 0 .207-.418c-.03-.059-.058-.121-.09-.149m7.82 6.992a.317.317 0 0 0-.39 0c-3.25 2.032-7.011 3.137-10.86 3.106-11.253 0-19.577-8.395-19.577-18.883v-.063C72.516 16.485 81.14 7.97 91.734 8.06h.418c11.25 0 19.606 8.398 19.606 18.886v.117c0 3.649-1.074 7.204-3.106 10.25-.09.122-.09.301 0 .418l2.54 2.094c.566.477.624 1.313.148 1.883l-.031.027-3.313 3.707c-.476.54-1.312.567-1.848.09ZM298 14.453c0 7.98-6.445 14.434-14.414 14.434-7.969 0-14.414-6.453-14.414-14.434 0-7.976 6.445-14.433 14.414-14.433C291.555.02 298 6.477 298 14.453"/>
  </g>
</svg>
